<svg xmlns="http://www.w3.org/2000/svg" viewBox="0 0 260 60" fill="none" role="img" aria-label="Long Island Car & Limo">
  <g transform="translate(2,18)">
    <path d="M2 18 L2 13 Q2 11 4 10 L14 10 L18 5 Q20 3 23 3 L40 3 Q43 3 45 5 L48 10 L56 11 Q60 12 60 16 L60 18 Z"
      fill="#FFC107" stroke="#1a1a1a" stroke-width="1.4" stroke-linejoin="round"/>
    <path d="M18 5 L45 5" stroke="#1a1a1a" stroke-width="1.4" stroke-linecap="round"/>
    <path d="M20 6 L23 9 L33 9 L33 6 Z M35 6 L35 9 L43 9 L42 6 Z" fill="#1a1a1a" opacity="0.85"/>
    <circle cx="14" cy="18" r="4" fill="#1a1a1a"/>
    <circle cx="14" cy="18" r="1.5" fill="#FFC107"/>
    <circle cx="48" cy="18" r="4" fill="#1a1a1a"/>
    <circle cx="48" cy="18" r="1.5" fill="#FFC107"/>
  </g>
  <g font-family="'Inter','Helvetica Neue',Arial,sans-serif" fill="#1a1a1a">
    <text x="70" y="26" font-size="14" font-weight="800" letter-spacing="0.5">LONG ISLAND</text>
    <text x="70" y="44" font-size="11" font-weight="500" letter-spacing="2.4" fill="#FFC107">CAR &amp; LIMO</text>
  </g>
</svg>
